<?xml version="1.0" encoding="utf-8"?>
<!-- Generator: Adobe Illustrator 17.1.0, SVG Export Plug-In . SVG Version: 6.00 Build 0)  -->
<!DOCTYPE svg PUBLIC "-//W3C//DTD SVG 1.1//EN" "http://www.w3.org/Graphics/SVG/1.1/DTD/svg11.dtd">
<svg version="1.1" id="Layer_1" xmlns="http://www.w3.org/2000/svg" xmlns:xlink="http://www.w3.org/1999/xlink" x="0px" y="0px"
	 viewBox="0 0 200 200" enable-background="new 0 0 200 200" xml:space="preserve">
<circle fill="RGB(51,51,51)" cx="100" cy="100" r="98.8"/>
<g>
	<g>
		<path fill="#FFFFFF" d="M110.8,75.6H75.9c-3.3,0-5.9,2.7-5.9,5.9v50c0,3.3,2.7,5.9,5.9,5.9h34.9c3.3,0,5.9-2.7,5.9-5.9v-50
			C116.7,78.3,114,75.6,110.8,75.6z M112.5,131.6c0,1-0.8,1.8-1.8,1.8H75.9c-1,0-1.8-0.8-1.8-1.8v-50c0-1,0.8-1.8,1.8-1.8h34.9
			c1,0,1.8,0.8,1.8,1.8V131.6z"/>
		<path fill="#FFFFFF" d="M124.1,62.5H89.2c-3.3,0-5.9,2.7-5.9,5.9c0,1.2,0.9,2.1,2.1,2.1c1.2,0,2.1-0.9,2.1-2.1
			c0-1,0.8-1.8,1.8-1.8h34.9c1,0,1.8,0.8,1.8,1.8v50c0,1-0.8,1.8-1.8,1.8c-1.2,0-2.1,0.9-2.1,2.1s0.9,2.1,2.1,2.1
			c3.3,0,5.9-2.7,5.9-5.9v-50C130,65.2,127.4,62.5,124.1,62.5z"/>
	</g>
</g>
</svg>
