<?xml version="1.0" encoding="utf-8"?>
<!-- Generator: Adobe Illustrator 17.1.0, SVG Export Plug-In . SVG Version: 6.00 Build 0)  -->
<!DOCTYPE svg PUBLIC "-//W3C//DTD SVG 1.1//EN" "http://www.w3.org/Graphics/SVG/1.1/DTD/svg11.dtd">
<svg version="1.1" id="Layer_1" xmlns="http://www.w3.org/2000/svg" xmlns:xlink="http://www.w3.org/1999/xlink" x="0px" y="0px"
	 viewBox="0 0 200 200" enable-background="new 0 0 200 200" xml:space="preserve">
<circle fill="RGB(51,51,51)" cx="100" cy="100" r="98.8"/>
<g>
	<path fill="#FFFFFF" d="M110.4,89.7c-1,0-1.8,0.8-1.8,1.8v33.2c0,1,0.8,1.8,1.8,1.8c1,0,1.8-0.8,1.8-1.8V91.4
		C112.1,90.5,111.3,89.7,110.4,89.7z"/>
	<path fill="#FFFFFF" d="M89.6,89.7c-1,0-1.8,0.8-1.8,1.8v33.2c0,1,0.8,1.8,1.8,1.8c1,0,1.8-0.8,1.8-1.8V91.4
		C91.4,90.5,90.6,89.7,89.6,89.7z"/>
	<path fill="#FFFFFF" d="M74.5,84.8v43.3c0,2.6,0.9,5,2.6,6.7c1.6,1.7,3.9,2.7,6.3,2.7h33.2c2.4,0,4.6-1,6.3-2.7
		c1.6-1.7,2.6-4.1,2.6-6.7V84.8c3.3-0.9,5.4-4,4.9-7.4c-0.4-3.3-3.3-5.8-6.7-5.8h-9v-2.2c0-1.8-0.7-3.6-2-4.9c-1.3-1.3-3.1-2-4.9-2
		H92.2c-1.8,0-3.6,0.7-4.9,2c-1.3,1.3-2,3.1-2,4.9v2.2h-9c-3.4,0-6.2,2.5-6.7,5.8C69.2,80.8,71.3,84,74.5,84.8z M116.6,134H83.4
		c-3,0-5.3-2.6-5.3-5.9V85H122v43.1C122,131.4,119.6,134,116.6,134z M88.8,69.4c0-0.9,0.3-1.8,1-2.4c0.6-0.6,1.5-1,2.4-1h15.6
		c0.9,0,1.8,0.3,2.4,1c0.6,0.6,1,1.5,1,2.4v2.2H88.8V69.4z M76.3,75.1h47.5c1.7,0,3.2,1.4,3.2,3.2c0,1.7-1.4,3.2-3.2,3.2H76.3
		c-1.7,0-3.2-1.4-3.2-3.2C73.1,76.6,74.5,75.1,76.3,75.1z"/>
	<path fill="#FFFFFF" d="M100,89.7c-1,0-1.8,0.8-1.8,1.8v33.2c0,1,0.8,1.8,1.8,1.8s1.8-0.8,1.8-1.8V91.4
		C101.8,90.5,101,89.7,100,89.7z"/>
</g>
</svg>
