<?xml version="1.0" encoding="utf-8"?>
<!-- Generator: Adobe Illustrator 17.1.0, SVG Export Plug-In . SVG Version: 6.00 Build 0)  -->
<!DOCTYPE svg PUBLIC "-//W3C//DTD SVG 1.1//EN" "http://www.w3.org/Graphics/SVG/1.1/DTD/svg11.dtd">
<svg version="1.1" id="Layer_1" xmlns="http://www.w3.org/2000/svg" xmlns:xlink="http://www.w3.org/1999/xlink" x="0px" y="0px"
	 viewBox="0 0 200 200" enable-background="new 0 0 200 200" xml:space="preserve">
<circle fill="#F0C419" cx="100" cy="100" r="98.8"/>
<g>
	<path fill="#FFFFFF" d="M131.9,109.6c-1,0-1.9,0.8-1.9,1.9v16.7c0,3.1-2.5,5.6-5.6,5.6H71.7c-3.1,0-5.6-2.5-5.6-5.6V79.2
		c0-3.1,2.5-5.6,5.6-5.6h16.7c1,0,1.9-0.8,1.9-1.9c0-1-0.8-1.9-1.9-1.9H71.7c-5.2,0-9.4,4.2-9.4,9.4v48.9c0,5.2,4.2,9.4,9.4,9.4
		h52.7c5.2,0,9.4-4.2,9.4-9.4v-16.7C133.8,110.4,132.9,109.6,131.9,109.6z"/>
	<path fill="#FFFFFF" d="M133,65c-3.3-3.3-8.6-3.3-11.9,0L87.6,98.5c-0.2,0.2-0.4,0.5-0.5,0.8l-4.4,15.9c-0.2,0.7,0,1.4,0.5,1.8
		c0.5,0.5,1.2,0.7,1.8,0.5l15.9-4.4c0.3-0.1,0.6-0.3,0.8-0.5l33.5-33.5c3.3-3.3,3.3-8.6,0-11.9L133,65z M91.7,99.7l27.4-27.4
		l8.8,8.8l-27.4,27.4L91.7,99.7z M89.9,103.2l7.1,7.1l-9.8,2.7L89.9,103.2z M132.6,76.5l-2,2l-8.8-8.8l2-2c1.8-1.8,4.8-1.8,6.6,0
		l2.2,2.2C134.4,71.7,134.4,74.6,132.6,76.5z"/>
</g>
</svg>
